<?xml version="1.0" encoding="utf-8"?>
<!-- Generator: Adobe Illustrator 16.0.0, SVG Export Plug-In . SVG Version: 6.00 Build 0)  -->
<!DOCTYPE svg PUBLIC "-//W3C//DTD SVG 1.1//EN" "http://www.w3.org/Graphics/SVG/1.1/DTD/svg11.dtd" [
	<!ENTITY ns_flows "http://ns.adobe.com/Flows/1.0/">
	<!ENTITY ns_extend "http://ns.adobe.com/Extensibility/1.0/">
	<!ENTITY ns_ai "http://ns.adobe.com/AdobeIllustrator/10.0/">
	<!ENTITY ns_graphs "http://ns.adobe.com/Graphs/1.0/">
]>
<svg version="1.1" id="Layer_1" xmlns:x="&ns_extend;" xmlns:i="&ns_ai;" xmlns:graph="&ns_graphs;"
	 xmlns="http://www.w3.org/2000/svg" xmlns:xlink="http://www.w3.org/1999/xlink" xmlns:a="http://ns.adobe.com/AdobeSVGViewerExtensions/3.0/"
	 x="0px" y="0px" width="100px" height="100px" viewBox="0 0 100 100" enable-background="new 0 0 100 100" xml:space="preserve">
<g>
	<circle fill="#FDD44B" cx="39.254" cy="29.853" r="14.911"/>
	<circle fill="none" stroke="#3F2D20" stroke-width="3" stroke-miterlimit="10" cx="37.104" cy="27.702" r="17.061"/>
	<circle fill="#CE593F" cx="62.225" cy="26.226" r="17.732"/>
	<path fill="none" stroke="#3F2D20" stroke-width="3" stroke-miterlimit="10" d="M79.957,24.478c0,10.758-8.723,19.48-19.478,19.48
		c-10.758,0-19.48-8.722-19.48-19.48S49.722,5,60.479,5C71.234,5,79.957,13.72,79.957,24.478z"/>
	<path fill="#EF8829" d="M57.11,81.388c-0.862-0.293-1.445-1.496-1.448-2.407c-0.003-0.91,0.574-1.245,1.436-1.544
		c7.732-2.67,13.799-10.91,16.64-18.97H30.972c2.842,8.06,8.907,16.104,16.64,18.771c0.86,0.301,1.439,0.773,1.438,1.687
		c-0.003,0.91-0.585,2.343-1.447,2.637c-5.276,1.787-8.939,4.312-9.826,10.76h29.16C66.047,85.871,62.387,83.179,57.11,81.388z"/>
	<path fill="#EF8829" d="M75.211,50.406H29.264c0.046,0,0.216,2.241,0.328,2.981l45.258-0.219
		C75.112,52.433,75.265,50.406,75.211,50.406z"/>
	<path fill="#3F2D20" d="M25.865,42.847h-1.629c-1.178,0-2.135,0.955-2.135,2.133c0,14.635,6.763,27.723,16.911,33.612
		c-5.312,3.235-8.555,8.485-8.555,14.275c0,1.179,0.954,2.133,2.133,2.133h36.688c1.177,0,2.134-0.954,2.134-2.133
		c0-5.79-3.243-11.04-8.555-14.275c10.147-5.891,16.909-18.977,16.909-33.612c0-1.178-0.956-2.133-2.134-2.133h-1.629 M34.93,90.735
		c0.889-4.496,4.548-8.35,9.826-10.139c0.864-0.291,1.444-1.102,1.447-2.017c0.002-0.909-0.574-1.722-1.437-2.021
		c-7.729-2.666-13.797-10.044-16.639-19.447h45.61c-2.843,9.403-8.907,16.781-16.64,19.447c-0.861,0.299-1.438,1.109-1.436,2.021
		c0.003,0.915,0.586,1.726,1.448,2.017c5.276,1.789,8.937,5.643,9.825,10.139H34.93z M71.732,42.85H30.136 M75.449,47.114
		c-0.097,1.957-0.329,3.868-0.676,5.732H27.096c-0.348-1.862-0.579-3.775-0.675-5.732H75.449z"/>
</g>
</svg>
