<?xml version="1.0" encoding="utf-8"?>
<!-- Generator: Adobe Illustrator 16.0.0, SVG Export Plug-In . SVG Version: 6.00 Build 0)  -->
<!DOCTYPE svg PUBLIC "-//W3C//DTD SVG 1.1//EN" "http://www.w3.org/Graphics/SVG/1.1/DTD/svg11.dtd" [
	<!ENTITY ns_flows "http://ns.adobe.com/Flows/1.0/">
	<!ENTITY ns_extend "http://ns.adobe.com/Extensibility/1.0/">
	<!ENTITY ns_ai "http://ns.adobe.com/AdobeIllustrator/10.0/">
	<!ENTITY ns_graphs "http://ns.adobe.com/Graphs/1.0/">
]>
<svg version="1.1" id="Layer_1" xmlns:x="&ns_extend;" xmlns:i="&ns_ai;" xmlns:graph="&ns_graphs;"
	 xmlns="http://www.w3.org/2000/svg" xmlns:xlink="http://www.w3.org/1999/xlink" xmlns:a="http://ns.adobe.com/AdobeSVGViewerExtensions/3.0/"
	 x="0px" y="0px" width="100px" height="100px" viewBox="0 0 100 100" enable-background="new 0 0 100 100" xml:space="preserve">
<g>
	<path fill="#EF8829" d="M30.336,57.782c-1.414-1.054-2.53-1.885-4.925-1.885s-3.512,0.834-4.926,1.885
		c-0.725,0.542-1.533,1.141-2.543,1.635c0.192,0.025,0.389,0.044,0.588,0.044h14.432C31.916,58.956,31.083,58.338,30.336,57.782z"/>
	<path fill="#EF8829" d="M54.926,57.782c-1.416-1.054-2.532-1.885-4.927-1.885s-3.511,0.834-4.924,1.885
		c-0.745,0.556-1.58,1.174-2.627,1.679h15.103C56.504,58.956,55.672,58.338,54.926,57.782z"/>
	<path fill="#EF8829" d="M74.589,55.897c-2.397,0-3.514,0.834-4.927,1.885c-0.744,0.556-1.577,1.174-2.625,1.679h14.427
		c0.199,0,0.396-0.019,0.586-0.044c-1.007-0.494-1.812-1.095-2.539-1.635C78.099,56.729,76.983,55.897,74.589,55.897z"/>
	<path fill="#84BD93" d="M81.464,50.265h-58.84c-2.279,0-4.16,1.822-4.445,4.023c-0.045,0.033-0.091,0.124-0.136,0.157
		c1.611-1.202,3.617-2.669,7.369-2.669c3.753,0,5.759,1.511,7.37,2.711c1.414,1.054,2.53,1.894,4.925,1.894
		c2.396,0,3.511-0.83,4.924-1.884c1.611-1.2,3.618-2.692,7.37-2.692s5.758,1.496,7.37,2.698c1.414,1.052,2.527,1.884,4.924,1.884
		c2.396,0,3.51-0.832,4.925-1.884c1.61-1.202,3.619-2.696,7.369-2.696c3.751,0,5.758,1.494,7.369,2.696
		c1.167,0.872,2.135,1.588,3.789,1.812c0.13-0.423,0.202-0.987,0.202-1.449C85.949,52.389,83.938,50.265,81.464,50.265z"/>
	<g>
		<path fill="#CE593F" d="M84.716,63.814c0.085,0.035,0.166,0.076,0.248,0.113C84.882,63.888,84.799,63.85,84.716,63.814z"/>
		<path fill="#CE593F" d="M85.313,64.118c0.085,0.052,0.163,0.104,0.242,0.162C85.477,64.223,85.398,64.171,85.313,64.118z"/>
		<path fill="#CE593F" d="M86.298,65.008c0.063,0.08,0.13,0.156,0.188,0.241C86.431,65.164,86.361,65.088,86.298,65.008z"/>
		<path fill="#CE593F" d="M86.726,65.693c0.064,0.136,0.116,0.279,0.164,0.421C86.843,65.973,86.792,65.829,86.726,65.693z"/>
		<path fill="#CE593F" d="M84.058,63.621c0.077,0.016,0.148,0.041,0.224,0.061C84.206,63.662,84.135,63.637,84.058,63.621z"/>
		<path fill="#CE593F" d="M86.065,64.727c-0.069-0.072-0.145-0.139-0.221-0.208C85.921,64.588,85.996,64.654,86.065,64.727z"/>
		<path fill="#CE593F" d="M13.027,68.221c-0.02-0.076-0.045-0.148-0.059-0.226C12.982,68.072,13.008,68.145,13.027,68.221z"/>
		<path fill="#CE593F" d="M15.466,70.832c-0.148-0.052-0.294-0.105-0.433-0.172C15.172,70.727,15.317,70.78,15.466,70.832z"/>
		<path fill="#CE593F" d="M14.597,70.425c-0.085-0.057-0.162-0.126-0.244-0.189C14.435,70.299,14.512,70.367,14.597,70.425z"/>
		<path fill="#CE593F" d="M86.978,66.887c-0.287-0.069-0.586,0.384-0.896,0.384H19.369c-2.063,0-3.744,1.183-3.744,3.247
			c0,0.309,0.042,0.795,0.114,1.081c0.291,0.073,0.59,0.31,0.903,0.31h66.715c2.063,0,3.742-1.867,3.742-3.931
			C87.1,67.666,87.049,67.179,86.978,66.887z"/>
		<path fill="#CE593F" d="M13.865,69.783c0.066,0.073,0.134,0.152,0.206,0.222C13.999,69.936,13.934,69.858,13.865,69.783z"/>
		<path fill="#CE593F" d="M13.275,68.902c-0.039-0.083-0.081-0.163-0.113-0.247C13.194,68.739,13.236,68.819,13.275,68.902z"/>
		<path fill="#CE593F" d="M13.628,69.494c-0.059-0.078-0.111-0.16-0.163-0.241C13.517,69.336,13.57,69.416,13.628,69.494z"/>
	</g>
	<path fill="#FDD44B" d="M86.272,75H17.816c-4.312,0-4.636,1.464-4.636,3.296c0,3.151,2.079,5.98,4.636,5.98h68.456
		c2.556,0,4.635-2.831,4.635-5.98C90.907,76.464,90.584,75,86.272,75z"/>
	<g>
		<path fill="#FDD44B" d="M10.914,44.375c0.037,0.04,0.075,0.083,0.115,0.122C10.989,44.458,10.951,44.415,10.914,44.375z"/>
		<path fill="#FDD44B" d="M80.573,24.172c0.136,0.09,0.266,0.182,0.4,0.271C80.839,24.354,80.709,24.262,80.573,24.172z"/>
		<path fill="#FDD44B" d="M9.251,41.276c-0.016-0.067-0.03-0.137-0.044-0.207C9.221,41.14,9.235,41.209,9.251,41.276z"/>
		<path fill="#FDD44B" d="M9.144,40.655c-0.006-0.063-0.017-0.127-0.022-0.188C9.127,40.53,9.137,40.594,9.144,40.655z"/>
		<path fill="#FDD44B" d="M85.579,28.229c-0.103-0.104-0.196-0.209-0.302-0.311C85.383,28.02,85.477,28.124,85.579,28.229z"/>
		<path fill="#FDD44B" d="M86.151,28.823c0.129,0.14,0.248,0.278,0.37,0.419C86.4,29.102,86.28,28.963,86.151,28.823z"/>
		<path fill="#FDD44B" d="M82.893,25.837c0.147,0.114,0.294,0.23,0.438,0.348C83.188,26.067,83.042,25.951,82.893,25.837z"/>
		<path fill="#FDD44B" d="M9.406,41.856c-0.02-0.062-0.036-0.125-0.053-0.188C9.37,41.731,9.387,41.795,9.406,41.856z"/>
		<path fill="#FDD44B" d="M83.982,26.731c0.127,0.11,0.257,0.219,0.383,0.33C84.239,26.95,84.109,26.842,83.982,26.731z"/>
		<path fill="#FDD44B" d="M81.765,24.989c0.149,0.108,0.297,0.219,0.448,0.328C82.062,25.208,81.914,25.098,81.765,24.989z"/>
		<path fill="#FDD44B" d="M12.1,45.355c-0.07-0.047-0.14-0.093-0.209-0.142C11.96,45.263,12.029,45.307,12.1,45.355z"/>
		<path fill="#FDD44B" d="M9.609,42.406c-0.01-0.022-0.019-0.05-0.027-0.072C9.591,42.358,9.6,42.384,9.609,42.406z"/>
		<path fill="#FDD44B" d="M13.127,45.897c-0.068-0.027-0.133-0.062-0.201-0.093C12.994,45.835,13.059,45.87,13.127,45.897z"/>
		<path fill="#FDD44B" d="M86.784,29.551c-1.034-0.799-2.159-1.565-3.376-2.295c-7.799-4.68-18.21-7.257-29.318-7.257
			c-11.109,0-21.521,2.577-29.321,7.257c-7.472,4.483-11.588,10.333-11.588,16.471c0,0.829,0.156,1.235,0.438,1.966
			c0.636,0.205,1.312-0.065,2.017-0.065h68.727c3.608,0,6.547-2.551,6.547-6.159S89.475,32.741,86.784,29.551z M28.249,37.864
			c-0.38,0.379-0.909,0.598-1.445,0.598c-0.538,0-1.063-0.219-1.445-0.598c-0.384-0.382-0.602-0.908-0.602-1.448
			c0-0.538,0.218-1.063,0.602-1.447c0.382-0.382,0.907-0.601,1.445-0.601c0.536,0,1.065,0.219,1.445,0.601
			c0.382,0.384,0.6,0.909,0.6,1.447C28.848,36.956,28.63,37.482,28.249,37.864z M40.453,27.555
			c-0.379,0.379-0.904,0.598-1.445,0.598c-0.537,0-1.063-0.219-1.445-0.598c-0.382-0.382-0.601-0.907-0.601-1.449
			c0-0.536,0.22-1.066,0.601-1.445c0.378-0.382,0.908-0.6,1.445-0.6c0.541,0,1.066,0.218,1.445,0.6c0.382,0.379,0.6,0.909,0.6,1.445
			C41.052,26.647,40.833,27.173,40.453,27.555z M51.447,37.864c-0.384,0.379-0.912,0.598-1.449,0.598s-1.063-0.219-1.445-0.598
			c-0.382-0.382-0.601-0.908-0.601-1.448c0-0.538,0.22-1.063,0.601-1.447c0.382-0.382,0.908-0.601,1.445-0.601
			s1.065,0.219,1.449,0.601c0.378,0.384,0.598,0.909,0.598,1.447C52.042,36.956,51.825,37.482,51.447,37.864z M62.434,27.555
			c-0.379,0.379-0.904,0.598-1.444,0.598c-0.538,0-1.064-0.219-1.446-0.598c-0.383-0.382-0.602-0.907-0.602-1.449
			c0-0.536,0.219-1.066,0.602-1.445c0.383-0.382,0.908-0.6,1.446-0.6c0.54,0,1.065,0.218,1.444,0.6c0.382,0.379,0.6,0.909,0.6,1.445
			C63.033,26.647,62.815,27.173,62.434,27.555z M74.64,37.864c-0.38,0.379-0.905,0.598-1.446,0.598
			c-0.537,0-1.062-0.219-1.446-0.598c-0.383-0.382-0.601-0.908-0.601-1.448c0-0.538,0.218-1.063,0.601-1.447
			c0.384-0.382,0.909-0.601,1.446-0.601c0.541,0,1.066,0.219,1.446,0.601c0.381,0.384,0.599,0.909,0.599,1.447
			C75.238,36.956,75.021,37.482,74.64,37.864z"/>
		<path fill="#FDD44B" d="M12.603,45.648c-0.074-0.038-0.148-0.082-0.223-0.123C12.454,45.566,12.528,45.61,12.603,45.648z"/>
		<path fill="#FDD44B" d="M9.956,43.095c-0.032-0.057-0.067-0.112-0.098-0.172C9.889,42.983,9.925,43.038,9.956,43.095z"/>
		<path fill="#FDD44B" d="M10.284,43.609c-0.044-0.063-0.086-0.123-0.127-0.187C10.197,43.486,10.24,43.546,10.284,43.609z"/>
		<path fill="#FDD44B" d="M11.613,45.006c-0.061-0.047-0.121-0.092-0.179-0.14C11.492,44.914,11.553,44.959,11.613,45.006z"/>
		<path fill="#FDD44B" d="M10.64,44.073c-0.049-0.058-0.095-0.116-0.142-0.175C10.547,43.956,10.591,44.016,10.64,44.073z"/>
	</g>
	<path fill="#3F2D20" d="M26.804,34.37c-0.538,0-1.063,0.218-1.445,0.601c-0.384,0.383-0.602,0.908-0.602,1.446
		c0,0.54,0.218,1.067,0.602,1.449c0.382,0.379,0.907,0.597,1.445,0.597c0.536,0,1.065-0.218,1.445-0.597
		c0.382-0.382,0.6-0.909,0.6-1.449c0-0.538-0.218-1.063-0.6-1.446C27.869,34.588,27.34,34.37,26.804,34.37z"/>
	<path fill="#3F2D20" d="M49.998,34.37c-0.537,0-1.063,0.218-1.445,0.601s-0.602,0.908-0.602,1.446c0,0.54,0.22,1.067,0.602,1.449
		c0.382,0.379,0.907,0.597,1.445,0.597c0.537,0,1.065-0.218,1.449-0.597c0.378-0.382,0.598-0.909,0.598-1.449
		c0-0.538-0.22-1.063-0.598-1.446C51.063,34.588,50.534,34.37,49.998,34.37z"/>
	<path fill="#3F2D20" d="M73.193,34.37c-0.537,0-1.062,0.218-1.446,0.601c-0.383,0.383-0.601,0.908-0.601,1.446
		c0,0.54,0.218,1.067,0.601,1.449c0.384,0.379,0.909,0.597,1.446,0.597c0.541,0,1.066-0.218,1.446-0.597
		c0.381-0.382,0.599-0.909,0.599-1.449c0-0.538-0.218-1.063-0.599-1.446C74.26,34.588,73.734,34.37,73.193,34.37z"/>
	<path fill="#3F2D20" d="M39.008,24.062c-0.537,0-1.067,0.219-1.445,0.601c-0.382,0.379-0.601,0.908-0.601,1.445
		c0,0.541,0.22,1.066,0.601,1.448c0.382,0.379,0.908,0.599,1.445,0.599c0.541,0,1.066-0.22,1.445-0.599
		c0.382-0.382,0.6-0.907,0.6-1.448c0-0.537-0.218-1.066-0.6-1.445C40.074,24.28,39.547,24.062,39.008,24.062z"/>
	<path fill="#3F2D20" d="M60.989,24.062c-0.538,0-1.064,0.219-1.446,0.601c-0.383,0.379-0.602,0.908-0.602,1.445
		c0,0.541,0.219,1.066,0.602,1.448c0.383,0.379,0.908,0.599,1.446,0.599c0.54,0,1.065-0.22,1.444-0.599
		c0.382-0.382,0.6-0.907,0.6-1.448c0-0.537-0.219-1.066-0.6-1.445C62.055,24.28,61.529,24.062,60.989,24.062z"/>
	<path fill="#3F2D20" d="M90.008,71.421c0.747-1.199,1.182-2.61,1.182-4.125c0-2.696-1.369-5.078-3.446-6.488
		c1.424-1.531,2.296-3.581,2.296-5.832c0-1.968-0.666-3.779-1.783-5.226c3.943-1.558,6.741-5.404,6.741-9.894
		c0-7.632-4.822-14.728-13.575-19.979c-8.425-5.055-19.585-7.84-31.424-7.84c-11.838,0-22.999,2.785-31.425,7.84
		C9.818,25.129,5,32.225,5,39.856c0,4.489,2.796,8.337,6.74,9.894c-1.118,1.446-1.784,3.258-1.784,5.226
		c0,2.251,0.874,4.3,2.299,5.829c-2.08,1.413-3.447,3.795-3.447,6.491c0,1.513,0.434,2.926,1.183,4.125
		c-2.444,0.631-4.989,2.303-4.989,6.736c0,5.408,3.913,9.806,8.726,9.806h72.548c4.81,0,8.726-4.397,8.726-9.806
		C94.997,73.724,92.452,72.052,90.008,71.421z M86.272,83.873H13.726c-2.557,0-4.635-2.564-4.635-5.716
		c0-1.83,0.321-3.028,4.635-3.028h72.547c4.312,0,4.635,1.198,4.635,3.028C90.907,81.31,88.828,83.873,86.272,83.873z
		 M81.464,59.461H67.037c1.048-0.505,1.881-1.123,2.625-1.679c1.413-1.054,2.529-1.885,4.927-1.885c2.395,0,3.51,0.834,4.923,1.885
		c0.727,0.542,1.532,1.141,2.541,1.635C81.859,59.442,81.663,59.461,81.464,59.461z M42.448,59.461
		c1.047-0.505,1.882-1.123,2.627-1.679c1.413-1.054,2.529-1.885,4.924-1.885s3.511,0.834,4.927,1.885
		c0.744,0.556,1.578,1.174,2.625,1.679H42.448z M18.533,59.461c-0.199,0-0.396-0.019-0.588-0.044
		c1.01-0.494,1.816-1.095,2.544-1.635c1.413-1.054,2.53-1.885,4.925-1.885s3.511,0.834,4.925,1.885
		c0.746,0.556,1.579,1.174,2.627,1.679H18.533z M85.745,56.314c-1.654-0.224-2.622-0.939-3.789-1.812
		c-1.61-1.202-3.617-2.696-7.367-2.696c-3.754,0-5.76,1.494-7.371,2.696c-1.413,1.054-2.528,1.886-4.925,1.886
		c-2.395,0-3.512-0.834-4.925-1.886c-1.609-1.202-3.615-2.696-7.369-2.696c-3.752,0-5.759,1.494-7.369,2.696
		c-1.413,1.054-2.529,1.886-4.924,1.886s-3.511-0.834-4.926-1.886c-1.61-1.202-3.617-2.696-7.369-2.696s-5.759,1.494-7.369,2.696
		c-1.17,0.872-2.138,1.591-3.791,1.812c-0.133-0.423-0.206-0.873-0.206-1.341c0-2.473,2.013-4.484,4.485-4.484h62.934
		c2.473,0,4.484,2.012,4.484,4.484C85.949,55.441,85.877,55.892,85.745,56.314z M84.362,46.4H15.636
		c-3.609,0-6.544-2.937-6.544-6.546c0-6.138,4.115-11.987,11.588-16.472c7.8-4.68,18.214-7.256,29.319-7.256
		c11.11,0,21.521,2.576,29.321,7.256c7.473,4.484,11.589,10.334,11.589,16.472C90.907,43.464,87.971,46.4,84.362,46.4z
		 M16.641,63.551h66.714c2.065,0,3.744,1.677,3.744,3.745c0,2.062-1.679,3.741-3.744,3.741H16.641c-2.063,0-3.744-1.679-3.744-3.741
		C12.897,65.23,14.577,63.551,16.641,63.551z"/>
</g>
</svg>
