<?xml version="1.0" encoding="utf-8"?>
<!-- Generator: Adobe Illustrator 16.0.0, SVG Export Plug-In . SVG Version: 6.00 Build 0)  -->
<!DOCTYPE svg PUBLIC "-//W3C//DTD SVG 1.1//EN" "http://www.w3.org/Graphics/SVG/1.1/DTD/svg11.dtd" [
	<!ENTITY ns_flows "http://ns.adobe.com/Flows/1.0/">
	<!ENTITY ns_extend "http://ns.adobe.com/Extensibility/1.0/">
	<!ENTITY ns_ai "http://ns.adobe.com/AdobeIllustrator/10.0/">
	<!ENTITY ns_graphs "http://ns.adobe.com/Graphs/1.0/">
]>
<svg version="1.1" id="Layer_1" xmlns:x="&ns_extend;" xmlns:i="&ns_ai;" xmlns:graph="&ns_graphs;"
	 xmlns="http://www.w3.org/2000/svg" xmlns:xlink="http://www.w3.org/1999/xlink" xmlns:a="http://ns.adobe.com/AdobeSVGViewerExtensions/3.0/"
	 x="0px" y="0px" width="100px" height="100px" viewBox="0 0 100 100" enable-background="new 0 0 100 100" xml:space="preserve">
<g>
	<g>
		<path fill="#FDD44B" d="M18.807,48.438c0.005-0.005,0.011-0.008,0.016-0.012C18.818,48.43,18.812,48.433,18.807,48.438z"/>
		<path fill="#FDD44B" d="M19.055,48.621c0.857,0,1.974-1.299,2.194-1.429l-9.014-23.351c-0.26-0.026-0.529-0.035-0.788,0.064
			c-0.43,0.167-0.77,0.468-0.955,0.889c-0.185,0.423-0.197,1.047-0.03,1.477l8.597,22.35C19.057,48.621,19.057,48.621,19.055,48.621
			z"/>
		<path fill="#FDD44B" d="M18.581,48.573c0.009-0.006,0.022-0.011,0.03-0.018C18.603,48.562,18.59,48.567,18.581,48.573z"/>
		<path fill="#FDD44B" d="M18.387,48.692c0.014-0.01,0.031-0.021,0.048-0.028C18.418,48.674,18.401,48.683,18.387,48.692z"/>
	</g>
	<g>
		<path fill="#FDD44B" d="M91.218,23c0.048,0.111,0.084,0.226,0.107,0.342C91.3,23.225,91.266,23.111,91.218,23z"/>
		<path fill="#FDD44B" d="M91.333,23.409c0.015,0.095,0.026,0.19,0.026,0.286C91.359,23.599,91.349,23.503,91.333,23.409z"/>
		<path fill="#FDD44B" d="M78.968,47.151c-0.009-0.006-0.021-0.012-0.03-0.017C78.947,47.139,78.959,47.145,78.968,47.151z"/>
		<path fill="#FDD44B" d="M78.854,47.087c-0.041-0.023-0.08-0.045-0.102-0.06C78.775,47.042,78.813,47.062,78.854,47.087z"/>
		<path fill="#FDD44B" d="M90.833,23.384c-0.887-0.343-1.889,0.098-2.231,0.985L79.63,47.527c0.74,0.424,1.72,0.987,2.139,1.26
			l9.479-24.469c0.078-0.198,0.112-0.402,0.114-0.61C91.207,23.572,91.028,23.461,90.833,23.384z"/>
	</g>
	<g>
		<path fill="#84BD93" d="M69.926,40.091c0.153,0.07,0.29,0.16,0.419,0.261C70.216,40.25,70.079,40.161,69.926,40.091z"/>
		<path fill="#84BD93" d="M42.108,42.145c0,0.001,0,0.004,0,0.007C42.108,42.148,42.108,42.147,42.108,42.145z"/>
		<path fill="#84BD93" d="M70.812,40.851c0.079,0.107,0.151,0.224,0.222,0.348C70.964,41.075,70.892,40.958,70.812,40.851z"/>
		<path fill="#84BD93" d="M70.707,40.714c-0.078-0.094-0.161-0.18-0.249-0.258C70.546,40.534,70.629,40.618,70.707,40.714z"/>
		<path fill="#84BD93" d="M71.107,41.328c0.094,0.177,0.182,0.367,0.266,0.574C71.289,41.695,71.2,41.505,71.107,41.328z"/>
		<path fill="#84BD93" d="M61.228,42.669c-0.091-0.02-0.18-0.037-0.272-0.053C61.045,42.632,61.137,42.649,61.228,42.669z"/>
		<path fill="#84BD93" d="M78.683,51.368c-0.268,0-3.694-2.179-4.722-3.28c-1.07-1.148-1.523-2.746-1.967-4.24
			c-0.213-0.73-0.407-1.385-0.621-1.913c-1.013-0.225-2.727,0.14-4.262,0.479c-1.502,0.332-3.042,0.664-4.537,0.676
			c-0.054-0.021-0.108-0.039-0.16-0.059c0.611,0.24,1.201,0.656,1.753,1.069c2.273,1.708,3.342,4.522,2.904,7.27h11.611V51.368z"/>
		<path fill="#84BD93" d="M39.898,41.651c0.004,0.017,0.01,0.029,0.012,0.044C39.908,41.68,39.903,41.667,39.898,41.651z"/>
		<path fill="#84BD93" d="M61.974,42.867c-0.094-0.03-0.188-0.058-0.284-0.086C61.786,42.81,61.88,42.837,61.974,42.867z"/>
		<path fill="#84BD93" d="M59.688,42.508c-0.056-0.001-0.109-0.005-0.163-0.005c-1.249-0.538-2.383-1.394-3.489-2.232
			c-1.507-1.14-2.926-2.217-4.254-2.217c-0.175,0-0.822,0.034-1.15,0.075c0.26,0.65,0.407,1.357,0.407,2.101
			c0,3.121-2.541,5.662-5.662,5.662c-2.089,0-3.917-1.139-4.896-2.828c-1.333-0.073-2.692-0.37-4.025-0.664
			c-1.718-0.381-3.665-0.812-4.597-0.386c-1.056,0.483-1.488,1.721-2.07,3.705c-0.439,1.494-0.895,3.144-1.965,4.291
			c-0.395,0.425-0.877,1.357-1.488,1.357h4.221c0.188,0,0.674-2.405,1.436-3.373c1.178-1.494,2.866-2.49,4.756-2.715
			c0.28-0.033,0.562,0.024,0.844,0.024c3.504,0,6.473,1.942,7.025,6.063h13.597l-4.173-3.233c-0.387-0.289-0.64-0.77-0.71-1.246
			c-0.067-0.478,0.06-0.987,0.347-1.372C55.151,43.555,57.407,42.505,59.688,42.508z"/>
		<path fill="#84BD93" d="M60.211,42.524c0.086,0.004,0.166,0.016,0.251,0.025C60.377,42.54,60.297,42.528,60.211,42.524z"/>
	</g>
	<path fill="#FDD44B" d="M37.949,48.837c0.115,0.013,0.228,0.03,0.339,0.055c-0.595,0.22-1.122,0.598-1.525,1.108
		c-0.152,0.194-0.28,0.402-0.385,0.618l-1.963,0.232l5.916-0.702C39.758,49.422,38.906,48.936,37.949,48.837z"/>
	<g>
		<path fill="#FDD44B" d="M63.019,48.069c0.058,0.1,0.104,0.204,0.154,0.309C63.122,48.275,63.076,48.169,63.019,48.069z"/>
		<path fill="#FDD44B" d="M62.565,47.452c-0.058-0.067-0.111-0.138-0.175-0.199C62.452,47.315,62.508,47.385,62.565,47.452z"/>
		<path fill="#FDD44B" d="M62.734,47.644c0.067,0.088,0.125,0.182,0.185,0.276C62.859,47.825,62.802,47.732,62.734,47.644z"/>
		<path fill="#FDD44B" d="M63.237,48.514L63.237,48.514c-0.993-0.744-2.229-0.935-3.345-0.629l3.593,2.696
			C63.599,49.875,63.506,49.162,63.237,48.514z"/>
	</g>
	<g>
		<path fill="#CE593F" d="M45.954,38.295c0.101,0.03,0.199,0.064,0.292,0.11C46.153,38.361,46.057,38.327,45.954,38.295z"/>
		<path fill="#CE593F" d="M46.371,38.472c0.088,0.051,0.174,0.107,0.254,0.17C46.544,38.58,46.46,38.523,46.371,38.472z"/>
		<path fill="#CE593F" d="M43.57,41.127c-0.025-0.048-0.052-0.094-0.07-0.144C43.519,41.034,43.545,41.079,43.57,41.127z"/>
		<path fill="#CE593F" d="M43.426,40.749c-0.011-0.041-0.027-0.083-0.037-0.128C43.398,40.665,43.415,40.705,43.426,40.749z"/>
		<path fill="#CE593F" d="M45.379,38.203c0.154,0,0.304,0.021,0.451,0.055C45.683,38.224,45.533,38.203,45.379,38.203z"/>
		<path fill="#CE593F" d="M46.952,38.967c-0.07-0.086-0.146-0.169-0.229-0.244C46.807,38.799,46.884,38.881,46.952,38.967z"/>
		<path fill="#CE593F" d="M44.334,41.958c-0.058-0.034-0.112-0.071-0.166-0.112C44.222,41.888,44.275,41.923,44.334,41.958z"/>
		<path fill="#CE593F" d="M43.774,41.456c-0.035-0.047-0.071-0.094-0.104-0.143C43.703,41.364,43.739,41.409,43.774,41.456z"/>
		<path fill="#CE593F" d="M45.037,42.224c-0.072-0.014-0.144-0.033-0.213-0.052C44.894,42.191,44.965,42.21,45.037,42.224z"/>
		<path fill="#CE593F" d="M44.671,42.124c-0.066-0.026-0.13-0.055-0.192-0.085C44.541,42.069,44.604,42.098,44.671,42.124z"/>
		<path fill="#CE593F" d="M46.995,39.019c-0.099-0.015-0.197-0.026-0.299-0.026c-1.118,0-2.027,0.91-2.027,2.027
			c0,0.453,0.15,0.869,0.4,1.207c0.103,0.015,0.203,0.03,0.309,0.03c1.116,0,2.027-0.91,2.027-2.028
			C47.406,39.775,47.249,39.357,46.995,39.019z"/>
		<path fill="#CE593F" d="M43.896,41.603c0.043,0.046,0.089,0.088,0.135,0.13C43.985,41.694,43.939,41.649,43.896,41.603z"/>
	</g>
	<g>
		<path fill="#EF8829" d="M19.355,67.243c-0.151-0.311-0.292-0.633-0.434-0.958C19.062,66.61,19.204,66.933,19.355,67.243z"/>
		<path fill="#EF8829" d="M20.064,68.585c-0.16-0.279-0.312-0.566-0.461-0.854C19.752,68.019,19.903,68.306,20.064,68.585z"/>
		<path fill="#EF8829" d="M21.991,71.396c0.611,0.743,1.271,1.431,1.982,2.061C23.265,72.826,22.604,72.139,21.991,71.396z"/>
		<path fill="#EF8829" d="M18.728,65.84c-0.195-0.482-0.382-0.971-0.554-1.477C18.346,64.869,18.532,65.36,18.728,65.84z"/>
		<path fill="#EF8829" d="M20.856,69.859c-0.179-0.266-0.353-0.537-0.522-0.814C20.503,69.322,20.678,69.594,20.856,69.859z"/>
		<path fill="#EF8829" d="M83.174,58.236H20.215c0.033,1.374,0.303,5.825,1.606,9.662c0.831,2.443,1.942,5.039,3.326,6.866
			c2.291,1.72,5.017,4.077,8.176,4.077H66.68c7.565-1.374,12.674-6.684,15.186-14.177c0.84-2.509,1.239-5.231,1.426-7.172
			C83.258,57.829,83.217,58.236,83.174,58.236z"/>
		<path fill="#EF8829" d="M83.37,56.401c0.019-0.294,0.033-0.572,0.044-0.833C83.403,55.829,83.389,56.107,83.37,56.401z"/>
		<path fill="#EF8829" d="M21.771,71.113c-0.219-0.277-0.435-0.558-0.641-0.849C21.336,70.556,21.552,70.836,21.771,71.113z"/>
		<path fill="#EF8829" d="M83.291,57.381c0.03-0.329,0.058-0.646,0.076-0.948C83.349,56.735,83.321,57.052,83.291,57.381z"/>
		<path fill="#EF8829" d="M25.061,74.348c-0.313-0.236-0.616-0.487-0.914-0.743C24.446,73.86,24.749,74.111,25.061,74.348z"/>
		<path fill="#EF8829" d="M83.416,55.528c0.011-0.259,0.016-0.503,0.021-0.726C83.432,55.026,83.427,55.27,83.416,55.528z"/>
	</g>
	<path fill="#3F2D20" d="M94.539,21.531c-0.577-1.31-1.631-2.316-2.965-2.833c-2.755-1.068-5.864,0.305-6.936,3.061l-8.697,22.46
		c-0.164-0.451-0.314-0.953-0.459-1.449c-0.625-2.128-1.404-4.779-4.046-5.985c-2.039-0.93-4.506-0.385-6.893,0.141
		c-1.699,0.375-3.457,0.766-4.711,0.524c-0.998-0.191-2.157-1.072-3.387-2.001c-1.828-1.385-3.897-2.954-6.446-2.954
		c-2.089,0-3.832,1.047-5.321,2.119c-1.78,0.219-3.308,1.269-4.18,2.75c-0.114,0.036-0.227,0.067-0.333,0.088
		c-1.252,0.241-3.01-0.149-4.71-0.524c-2.386-0.527-4.854-1.072-6.892-0.143c-2.642,1.208-3.421,3.856-4.047,5.985
		c-0.146,0.497-0.294,0.999-0.458,1.45L15.359,21.76c-1.067-2.755-4.179-4.129-6.933-3.061c-1.334,0.517-2.387,1.522-2.967,2.833
		c-0.578,1.31-0.611,2.766-0.095,4.1l9.892,25.536h-0.474c-0.948,0-1.738,0.729-1.811,1.677c-0.021,0.245-0.447,6.101,1.719,12.565
		c2.927,8.741,9.175,14.347,18.066,16.213c0.124,0.026,0.249,0.04,0.374,0.04h33.74c0.126,0,0.249-0.015,0.373-0.04
		c8.891-1.865,15.139-7.471,18.066-16.213c2.165-6.465,1.739-12.32,1.72-12.565c-0.075-0.947-0.863-1.677-1.813-1.677h-0.472
		l9.891-25.536C95.153,24.297,95.118,22.841,94.539,21.531z M91.246,24.318l-9.478,24.469c-0.656-0.429-2.703-1.576-3.016-1.761
		l9.277-23.954c0.344-0.886,1.344-1.328,2.23-0.983c0.429,0.167,0.77,0.489,0.954,0.911C91.402,23.419,91.412,23.891,91.246,24.318z
		 M81.863,64.257c-2.51,7.495-7.616,12.129-15.184,13.771H33.323c-7.528-1.634-12.624-6.231-15.149-13.664
		c-1.302-3.837-1.573-7.508-1.604-9.56h66.868C83.405,56.827,83.142,60.439,81.863,64.257z M8.787,23
		c0.185-0.422,0.524-0.744,0.954-0.911c0.886-0.343,1.888,0.099,2.231,0.984l9.278,23.954c-0.307,0.179-2.36,1.334-3.015,1.762
		L8.756,24.318C8.59,23.891,8.599,23.419,8.787,23z M26.039,47.988c1.07-1.148,1.526-2.696,1.966-4.191
		c0.584-1.984,1.014-3.223,2.071-3.706c0.931-0.426,2.877,0.005,4.597,0.386c1.698,0.375,3.443,0.761,5.118,0.67
		c0.439,2.688,2.777,4.747,5.588,4.747c3.121,0,5.662-2.54,5.662-5.663c0-1.572-0.644-2.995-1.68-4.022
		c0.216-0.05,0.43-0.078,0.639-0.078c1.325,0,2.747,1.076,4.252,2.215c1.508,1.143,3.065,2.323,4.896,2.674
		c1.989,0.383,4.121-0.089,6.182-0.543c1.717-0.38,3.665-0.811,4.596-0.386c1.058,0.483,1.489,1.722,2.071,3.706
		c0.44,1.496,0.896,3.043,1.965,4.191c1.028,1.101,4.453,3.024,4.721,3.18H67.074c0.437-2.695-0.631-5.463-2.903-7.172
		c-3.303-2.479-8.01-1.811-10.49,1.493c-0.29,0.385-0.416,0.871-0.346,1.348c0.066,0.477,0.321,0.908,0.708,1.198l4.173,3.133H44.62
		c-0.553-3.435-3.521-5.987-7.026-5.987c-0.282,0-0.564,0.016-0.844,0.051c-1.889,0.222-3.579,1.17-4.755,2.663
		c-0.763,0.969-1.248,2.09-1.436,3.273h-9.237c0.268-0.155,2.11-1.189,2.752-1.604C24.921,49.02,25.546,48.518,26.039,47.988z
		 M45.379,38.203c1.117,0,2.027,0.91,2.027,2.028c0,1.117-0.91,2.027-2.027,2.027c-1.118,0-2.029-0.909-2.029-2.027
		C43.35,39.111,44.26,38.203,45.379,38.203z M63.485,50.581l-5.445-4.088c1.248-0.58,2.77-0.471,3.945,0.411
		C63.152,47.78,63.704,49.199,63.485,50.581z M34.413,50.851c0.114-0.249,0.258-0.485,0.431-0.705
		c0.577-0.73,1.404-1.194,2.329-1.305c0.138-0.017,0.278-0.024,0.417-0.024c1.102,0,2.096,0.517,2.738,1.332L34.413,50.851z"/>
</g>
</svg>
