<?xml version="1.0" encoding="utf-8"?>
<!-- Generator: Adobe Illustrator 16.0.0, SVG Export Plug-In . SVG Version: 6.00 Build 0)  -->
<!DOCTYPE svg PUBLIC "-//W3C//DTD SVG 1.1//EN" "http://www.w3.org/Graphics/SVG/1.1/DTD/svg11.dtd" [
	<!ENTITY ns_flows "http://ns.adobe.com/Flows/1.0/">
	<!ENTITY ns_extend "http://ns.adobe.com/Extensibility/1.0/">
	<!ENTITY ns_ai "http://ns.adobe.com/AdobeIllustrator/10.0/">
	<!ENTITY ns_graphs "http://ns.adobe.com/Graphs/1.0/">
]>
<svg version="1.1" id="Layer_1" xmlns:x="&ns_extend;" xmlns:i="&ns_ai;" xmlns:graph="&ns_graphs;"
	 xmlns="http://www.w3.org/2000/svg" xmlns:xlink="http://www.w3.org/1999/xlink" xmlns:a="http://ns.adobe.com/AdobeSVGViewerExtensions/3.0/"
	 x="0px" y="0px" width="100px" height="100px" viewBox="0 0 100 100" enable-background="new 0 0 100 100" xml:space="preserve">
<g>
	<path fill="#3F2D20" d="M94.993,44.09c-0.166-3.33-1.616-6.562-4.345-9.641c-3.961-4.458-10.696-8.615-20.029-12.349
		c-8.211-3.286-17.009-5.024-25.442-5.024c-9.263,0-17.84,2.093-24.811,6.051c-0.529,0.271-4.44,2.365-8.187,6.645
		c-3.395,3.876-7.25,10.305-7.165,19.419c-0.012,0.083-0.018,13.431-0.013,13.48c0.631,8.346,4.803,14.732,11.752,17.979
		c3.279,1.533,7.072,2.273,10.933,2.273c5.921,0,12.003-1.744,16.647-5.074c12.215-8.752,21.267-11.389,30.268-8.812
		c5.907,1.691,10.758,1.377,14.412-0.938c3.175-2.01,5.241-5.426,5.973-9.877C95.002,58.121,95.005,44.175,94.993,44.09z
		 M91.184,57.752c-0.405,2.316-1.466,5.373-4.22,7.113c-2.692,1.707-6.5,1.871-11.312,0.492c-5.383-1.541-10.78-1.441-16.499,0.299
		c-5.122,1.561-10.701,4.533-17.051,9.082C35.48,79.482,25.5,80.512,18.37,77.184c-3.956-1.85-8.8-5.879-9.534-14.576
		c1.101,1.609,2.427,3.041,3.978,4.256c3.903,3.066,9.198,4.752,14.907,4.752c6.043,0,12.096-1.857,16.607-5.1
		c9.379-6.74,16.663-9.748,23.617-9.748c2.215,0,4.358,0.307,6.555,0.938c2.461,0.707,4.771,1.066,6.863,1.066l0,0
		c4.106,0,7.453-1.363,9.82-3.891V57.752z M22.125,26.528c0.03-0.017,5.932-3.618,13.1-4.707L8.932,51.188
		c-0.002-0.045-0.608-11.287,6.028-18.782C18.453,28.462,22.092,26.546,22.125,26.528z M87.187,36.348
		c3.105,3.224,4.425,6.556,3.873,9.921c-0.651,3.958-2.86,8.674-9.694,8.674c-1.735,0-3.69-0.307-5.808-0.916
		c-1.162-0.332-2.338-0.588-3.516-0.768L87.187,36.348z M67.18,52.951c-6.882,0.188-13.941,2.895-22.496,8.656l30.006-33.561
		c3.892,1.854,7.11,3.778,9.642,5.753L67.18,52.951z M34.915,66.791c-2.304,0.65-4.744,1-7.192,1c-2.584,0-5.25-0.41-7.738-1.328
		L59.62,22.632c3.238,0.761,6.452,1.771,9.577,3.023c0.621,0.246,1.226,0.5,1.825,0.753L34.915,66.791z M16.423,64.697
		c-2.931-1.896-5.324-4.746-6.591-8.775L41.043,21.06c1.359-0.098,2.737-0.154,4.134-0.154c3.317,0,6.699,0.29,10.077,0.849
		L16.423,64.697z"/>
	<g>
		<path fill="#CE593F" d="M88.523,37.895c-0.09-0.119-0.178-0.234-0.271-0.349C88.348,37.661,88.434,37.776,88.523,37.895z"/>
		<path fill="#CE593F" d="M87.966,37.21c-0.075-0.086-0.148-0.177-0.228-0.263C87.817,37.033,87.891,37.124,87.966,37.21z"/>
		<path fill="#CE593F" d="M89.01,38.548c-0.094-0.134-0.188-0.27-0.288-0.403C88.823,38.279,88.916,38.415,89.01,38.548z"/>
		<path fill="#CE593F" d="M90.997,42.973c-0.038-0.2-0.086-0.399-0.139-0.601C90.911,42.574,90.959,42.773,90.997,42.973z"/>
		<path fill="#CE593F" d="M73.583,53.547c-0.513-0.107-1.025-0.209-1.541-0.285C72.558,53.338,73.07,53.438,73.583,53.547z"/>
		<path fill="#CE593F" d="M89.438,39.192c-0.092-0.148-0.187-0.297-0.286-0.446C89.251,38.895,89.346,39.043,89.438,39.192z"/>
		<path fill="#CE593F" d="M90.999,42.982c0.2,1.02,0.231,2.045,0.087,3.073c-0.342-2.424-1.649-4.818-3.901-7.156l-13.19,14.731
			c-0.025-0.004-0.051-0.008-0.073-0.016c0.547,0.123,1.093,0.26,1.636,0.414c2.117,0.607,4.073,0.916,5.809,0.916
			c6.834,0,9.043-4.717,9.692-8.675C91.238,45.169,91.216,44.074,90.999,42.982z"/>
		<path fill="#CE593F" d="M90.852,42.349c-0.052-0.198-0.111-0.392-0.175-0.582C90.741,41.959,90.8,42.153,90.852,42.349z"/>
		<path fill="#CE593F" d="M89.814,39.826c-0.09-0.158-0.181-0.318-0.276-0.478C89.634,39.508,89.726,39.668,89.814,39.826z"/>
		<path fill="#CE593F" d="M90.662,41.722c-0.064-0.187-0.133-0.373-0.209-0.562C90.529,41.349,90.598,41.536,90.662,41.722z"/>
		<path fill="#CE593F" d="M90.144,40.463c-0.083-0.17-0.168-0.341-0.258-0.51C89.976,40.121,90.061,40.292,90.144,40.463z"/>
		<path fill="#CE593F" d="M90.425,41.094c-0.073-0.182-0.15-0.36-0.237-0.539C90.274,40.734,90.352,40.913,90.425,41.094z"/>
	</g>
	<path fill="#CE593F" d="M35.226,21.821l-3.708,4.142c-4.047,1.414-6.818,3.103-6.842,3.114c-0.032,0.02-3.67,1.938-7.162,5.876
		c-3.546,4.006-5.024,9.076-5.633,12.938L35.226,21.821z"/>
	<g>
		<path fill="#CE593F" d="M26.861,79.104c0.185,0.006,0.372,0.014,0.558,0.018C27.232,79.117,27.046,79.109,26.861,79.104z"/>
		<path fill="#CE593F" d="M19.993,77.838c-0.098-0.035-0.202-0.066-0.301-0.102C19.792,77.773,19.895,77.803,19.993,77.838z"/>
		<path fill="#CE593F" d="M10.496,64.695c-0.203-0.221-0.397-0.451-0.59-0.686C10.098,64.244,10.293,64.473,10.496,64.695z"/>
		<path fill="#CE593F" d="M10.867,65.09c0.184,0.191,0.37,0.375,0.562,0.559C11.237,65.465,11.049,65.281,10.867,65.09z"/>
		<path fill="#CE593F" d="M8.838,62.607c0.253,0.371,0.523,0.73,0.801,1.082C9.361,63.336,9.091,62.977,8.838,62.607L8.838,62.607z"
			/>
		<path fill="#CE593F" d="M22.964,78.658c-0.175-0.033-0.349-0.068-0.521-0.107C22.615,78.59,22.791,78.623,22.964,78.658z"/>
		<path fill="#CE593F" d="M81.396,59.182c0,0-0.014,0-0.017,0c-2.092,0-4.407-0.564-6.871-1.27c-2.196-0.635-4.345-1.041-6.56-1.041
			c-6.952,0-14.235,2.957-23.616,9.697c-4.511,3.242-10.566,5.078-16.609,5.078c-5.708,0-11.002-1.705-14.907-4.771
			c-0.335-0.262-0.657-0.545-0.969-0.828c0.039,0.035,0.078,0.074,0.119,0.111c1.566,6.291,5.584,9.451,8.957,11.025
			c2.435,1.139,5.198,1.766,8.048,1.912c4.704-0.225,9.439-1.713,13.133-4.359c6.35-4.551,11.929-7.521,17.051-9.082
			c5.719-1.74,11.116-1.838,16.499-0.297c4.814,1.379,8.463,1.213,11.156-0.494c2.751-1.74,4.064-4.797,4.064-7.113v-2.869
			C89.427,57.408,85.501,59.182,81.396,59.182z"/>
		<path fill="#CE593F" d="M28.919,79.098c-0.156,0.01-0.312,0.006-0.468,0.012C28.607,79.104,28.763,79.105,28.919,79.098z"/>
		<path fill="#CE593F" d="M21.498,78.311c-0.15-0.039-0.302-0.078-0.452-0.123C21.195,78.232,21.347,78.27,21.498,78.311z"/>
		<path fill="#CE593F" d="M24.438,78.904c-0.187-0.025-0.373-0.051-0.559-0.082C24.065,78.854,24.251,78.879,24.438,78.904z"/>
		<path fill="#CE593F" d="M25.924,79.057c-0.191-0.014-0.382-0.031-0.573-0.049C25.542,79.025,25.732,79.043,25.924,79.057z"/>
	</g>
	<g>
		<polygon fill="#CE593F" points="41.043,21.06 9.832,55.92 9.832,55.92 		"/>
		<path fill="#CE593F" d="M45.177,23.457c-1.396,0-2.773,0.057-4.134,0.156l-30.53,34.098c1.355,3.096,3.437,5.387,5.91,6.984
			l36.795-40.691C50.52,23.645,47.829,23.457,45.177,23.457z"/>
		<path fill="#CE593F" d="M10.442,57.559c-0.057-0.135-0.11-0.268-0.163-0.402C10.332,57.291,10.384,57.424,10.442,57.559z"/>
	</g>
	<path fill="#CE593F" d="M69.355,28.271c-0.053-0.023-0.104-0.045-0.158-0.065c-3.122-1.251-6.336-2.258-9.577-3.022L21.781,67.027
		c-0.302-0.08-0.604-0.166-0.903-0.26c2.226,0.701,4.568,1.023,6.845,1.023c2.448,0,4.888-0.35,7.192-1l36.108-40.383L69.355,28.271
		z"/>
	<g>
		<path fill="#CE593F" d="M46.139,60.652c-0.482,0.311-0.965,0.627-1.456,0.957C45.173,61.279,45.658,60.963,46.139,60.652z"/>
		<path fill="#CE593F" d="M74.689,30.601L49.815,58.418c-0.066,0.039-0.134,0.08-0.199,0.115c6.42-3.658,12.049-5.434,17.563-5.582
			l15.775-17.619C80.664,33.717,77.91,32.133,74.689,30.601z"/>
		<path fill="#CE593F" d="M48.938,58.928c-0.245,0.146-0.495,0.293-0.744,0.443C48.443,59.221,48.692,59.074,48.938,58.928z"/>
		<path fill="#CE593F" d="M47.551,59.764c-0.293,0.18-0.588,0.365-0.885,0.551C46.963,60.127,47.258,59.943,47.551,59.764z"/>
	</g>
</g>
</svg>
