<?xml version="1.0" encoding="utf-8"?>
<!-- Generator: Adobe Illustrator 16.0.0, SVG Export Plug-In . SVG Version: 6.00 Build 0)  -->
<!DOCTYPE svg PUBLIC "-//W3C//DTD SVG 1.1//EN" "http://www.w3.org/Graphics/SVG/1.1/DTD/svg11.dtd" [
	<!ENTITY ns_flows "http://ns.adobe.com/Flows/1.0/">
	<!ENTITY ns_extend "http://ns.adobe.com/Extensibility/1.0/">
	<!ENTITY ns_ai "http://ns.adobe.com/AdobeIllustrator/10.0/">
	<!ENTITY ns_graphs "http://ns.adobe.com/Graphs/1.0/">
]>
<svg version="1.1" id="Layer_1" xmlns:x="&ns_extend;" xmlns:i="&ns_ai;" xmlns:graph="&ns_graphs;"
	 xmlns="http://www.w3.org/2000/svg" xmlns:xlink="http://www.w3.org/1999/xlink" xmlns:a="http://ns.adobe.com/AdobeSVGViewerExtensions/3.0/"
	 x="0px" y="0px" width="100px" height="100px" viewBox="0 0 100 100" enable-background="new 0 0 100 100" xml:space="preserve">
<g>
	<path fill="#3F2D20" d="M93.271,53.464h-5.586c-0.277-6.88-5.879-12.405-12.787-12.569C71.6,33.962,64.66,29.542,56.902,29.542
		c-2.021,0-4.008,0.309-5.907,0.897c-1.836-2.542-4.684-4.16-7.869-4.402c-0.717-0.056-1.436-0.038-2.136,0.049
		c-4.453,0.549-7.994,3.74-9.066,7.981c-1.167,0.019-2.333,0.134-3.467,0.351c-9.188,1.764-15.897,9.728-16.145,19.045H6.731
		C5.775,53.464,5,54.238,5,55.195c0,2.093,4.541,7.875,6.741,10.348c3.431,3.857,8.464,8.451,12.964,8.451h50.588
		c4.502,0,9.535-4.594,12.963-8.451C90.457,63.07,95,57.288,95,55.195C95,54.238,94.227,53.464,93.271,53.464z M85.309,63.647
		c-3.975,4.375-7.629,6.886-10.014,6.886H24.706c-2.388,0-6.039-2.51-10.015-6.886c-2.318-2.552-4.124-5.042-5.19-6.723h80.997
		C89.432,58.605,87.627,61.096,85.309,63.647z M42.865,29.489c1.87,0.143,3.569,0.984,4.799,2.327
		c-1.42,0.744-2.758,1.656-3.976,2.735c-0.678,0.599-1.316,1.251-1.907,1.938c-1.974-1.081-4.103-1.81-6.322-2.171
		c0.891-2.562,3.158-4.45,5.956-4.795C41.892,29.463,42.379,29.453,42.865,29.489z M84.223,53.464h-3.375
		c-0.273-3.215-2.973-5.748-6.258-5.748s-5.986,2.533-6.258,5.748h-1.418c0-0.017,0-0.034,0-0.051c0-1.422-0.293-2.776-0.816-4.009
		c1.277-2.354,5.064-5.056,8.492-5.056C79.732,44.349,83.947,48.391,84.223,53.464z M55.318,46.759
		c0.439-0.088,0.891-0.134,1.348-0.134c3.744,0,6.789,3.045,6.789,6.788c0,0.017-0.004,0.034-0.004,0.051H49.88
		c0-0.017,0-0.034,0-0.051C49.879,50.193,52.166,47.394,55.318,46.759z M56.668,43.165c-0.686,0-1.371,0.068-2.031,0.201
		c-1.652,0.333-3.148,1.06-4.395,2.069c-0.299-0.625-0.632-1.231-0.994-1.823c1.821-2.382,4.61-3.782,7.657-3.782
		c3.512,0,6.695,1.877,8.408,4.92c-0.471,0.47-0.912,0.973-1.309,1.515C62.141,44.356,59.541,43.165,56.668,43.165z M71.822,53.464
		c0.248-1.301,1.396-2.287,2.768-2.287c1.373,0,2.518,0.984,2.77,2.287H71.822z M68.084,42.629
		c-2.377-3.884-6.572-6.259-11.18-6.259c-3.807,0-7.318,1.602-9.781,4.374c-0.745-0.838-1.562-1.612-2.439-2.315
		c0.409-0.454,0.845-0.884,1.3-1.287c3.012-2.669,6.893-4.138,10.92-4.138c6.008,0,11.424,3.208,14.324,8.328
		C70.125,41.628,69.066,42.066,68.084,42.629z M47.738,48.394c-0.844,1.496-1.32,3.214-1.32,5.02c0,0.017,0.001,0.034,0.001,0.051
		h-1.083c-0.281-6.981-6.048-12.575-13.098-12.575c-7.049,0-12.815,5.594-13.096,12.575h-3.37
		c0.247-7.659,5.777-14.196,13.337-15.646c1.022-0.197,2.075-0.297,3.128-0.297C39.252,37.523,45.386,41.86,47.738,48.394z
		 M32.239,47.718c-3.284,0-5.986,2.533-6.258,5.748h-3.376c0.279-5.073,4.493-9.115,9.633-9.115c5.143,0,9.355,4.042,9.634,9.115
		h-3.375C38.224,50.249,35.523,47.718,32.239,47.718z M35.008,53.464h-5.539c0.251-1.301,1.396-2.287,2.769-2.287
		C33.613,51.178,34.758,52.163,35.008,53.464z"/>
	<path fill="#FDD44B" d="M74.59,51.178c-1.371,0-2.52,0.985-2.768,2.288h5.537C77.107,52.163,75.963,51.178,74.59,51.178z"/>
	<path fill="#FDD44B" d="M56.904,39.831c-3.047,0-5.836,1.398-7.657,3.782c0.362,0.591,0.695,1.198,0.994,1.824
		c1.247-1.01,2.743-1.737,4.395-2.069c0.66-0.135,1.346-0.202,2.031-0.202c2.873,0,5.473,1.191,7.336,3.103
		c0.398-0.542,0.838-1.046,1.309-1.515C63.6,41.708,60.416,39.831,56.904,39.831z"/>
	<path fill="#FDD44B" d="M38.498,53.464h3.376c-0.278-5.073-4.492-9.115-9.635-9.115c-5.14,0-9.354,4.042-9.632,9.115h3.376
		c0.272-3.215,2.974-5.748,6.258-5.748C35.525,47.716,38.224,50.249,38.498,53.464z"/>
	<path fill="#FDD44B" d="M29.471,53.464h5.539c-0.25-1.301-1.396-2.287-2.771-2.287C30.866,51.178,29.72,52.163,29.471,53.464z"/>
	<g>
		<path fill="#FDD44B" d="M80.447,46.341c0.064,0.05,0.127,0.099,0.189,0.149C80.574,46.439,80.512,46.391,80.447,46.341z"/>
		<path fill="#FDD44B" d="M81.744,47.538c0.047,0.052,0.096,0.104,0.141,0.155C81.84,47.642,81.791,47.59,81.744,47.538z"/>
		<path fill="#FDD44B" d="M81.338,47.117c-0.055-0.056-0.109-0.112-0.166-0.166C81.229,47.005,81.283,47.062,81.338,47.117z"/>
		<path fill="#FDD44B" d="M78.982,45.412c0.061,0.029,0.115,0.063,0.172,0.094C79.098,45.476,79.043,45.441,78.982,45.412z"/>
		<path fill="#FDD44B" d="M79.727,45.839c0.043,0.027,0.084,0.05,0.127,0.078C79.814,45.891,79.77,45.866,79.727,45.839z"/>
		<path fill="#FDD44B" d="M78.123,45.023c0.059,0.022,0.119,0.047,0.18,0.071C78.242,45.071,78.182,45.046,78.123,45.023z"/>
		<path fill="#FDD44B" d="M82.213,48.487c-1.635-1.271-3.682-2.218-5.906-2.218c-3.426,0-7.213,2.605-8.492,4.96
			c0.25,0.583,0.443,1.146,0.582,1.779c-0.027,0.168-0.051,0.309-0.064,0.479c0.271-3.216,2.973-5.38,6.258-5.38
			s5.984,3.505,6.258,6.121h3.375C84.113,51.613,83.375,49.986,82.213,48.487z"/>
		<path fill="#FDD44B" d="M75.447,44.392c0.055,0.005,0.107,0.007,0.162,0.014C75.555,44.399,75.498,44.395,75.447,44.392z"/>
		<path fill="#FDD44B" d="M77.318,44.745c0.02,0.004,0.041,0.009,0.061,0.015C77.359,44.753,77.338,44.749,77.318,44.745z"/>
		<path fill="#FDD44B" d="M76.406,44.525c0.057,0.01,0.107,0.023,0.16,0.033C76.514,44.548,76.463,44.534,76.406,44.525z"/>
	</g>
	<g>
		<path fill="#FDD44B" d="M40.565,39.761c0.109,0.064,0.215,0.131,0.321,0.195C40.78,39.892,40.674,39.825,40.565,39.761z"/>
		<path fill="#FDD44B" d="M39.417,39.155c0.084,0.04,0.167,0.075,0.25,0.118C39.584,39.23,39.501,39.195,39.417,39.155z"/>
		<path fill="#FDD44B" d="M38.333,38.678c0.106,0.043,0.209,0.085,0.314,0.13C38.542,38.763,38.439,38.721,38.333,38.678z"/>
		<path fill="#FDD44B" d="M43.734,42.169c-0.092-0.092-0.19-0.179-0.286-0.266C43.543,41.993,43.642,42.078,43.734,42.169z"/>
		<path fill="#FDD44B" d="M42.606,41.168c0.104,0.086,0.205,0.171,0.306,0.259C42.811,41.342,42.709,41.254,42.606,41.168z"/>
		<path fill="#FDD44B" d="M41.527,40.371c0.097,0.066,0.193,0.128,0.288,0.197C41.72,40.499,41.624,40.438,41.527,40.371z"/>
		<path fill="#FDD44B" d="M33.398,37.565c0.1,0.006,0.199,0.017,0.298,0.024C33.598,37.582,33.499,37.574,33.398,37.565z"/>
		<path fill="#FDD44B" d="M47.631,48.394c-0.764-2.123-1.879-4.007-3.34-5.593c-2.855-2.305-6.449-3.645-10.34-3.645
			c-1.053,0-2.091,0.483-3.114,0.68c-7.014,1.346-12.267,7.854-13.188,14.394h1.494c0.281-6.54,6.048-12.576,13.096-12.576
			c7.05,0,12.816,6.036,13.098,12.576h0.869c0,0,0-0.742,0-0.761C46.206,51.665,46.79,49.89,47.631,48.394z"/>
		<path fill="#FDD44B" d="M37.148,38.262c0.059,0.02,0.122,0.035,0.182,0.055C37.27,38.297,37.207,38.282,37.148,38.262z"/>
		<path fill="#FDD44B" d="M34.748,37.712c0.03,0.005,0.062,0.008,0.091,0.013C34.81,37.72,34.778,37.717,34.748,37.712z"/>
		<path fill="#FDD44B" d="M35.934,37.938c0.102,0.022,0.201,0.047,0.302,0.07C36.135,37.986,36.036,37.96,35.934,37.938z"/>
	</g>
	<g>
		<path fill="#FDD44B" d="M65.041,35.146c0.121,0.068,0.24,0.139,0.359,0.21C65.281,35.285,65.162,35.214,65.041,35.146z"/>
		<path fill="#FDD44B" d="M64.045,34.625c0.117,0.057,0.232,0.111,0.35,0.17C64.277,34.736,64.162,34.682,64.045,34.625z"/>
		<path fill="#FDD44B" d="M66.033,35.754c0.119,0.078,0.234,0.162,0.352,0.244C66.266,35.915,66.15,35.832,66.033,35.754z"/>
		<path fill="#FDD44B" d="M66.826,36.317c0.117,0.09,0.238,0.184,0.357,0.278C67.064,36.501,66.943,36.408,66.826,36.317z"/>
		<path fill="#FDD44B" d="M67.592,36.936c0.113,0.097,0.229,0.191,0.338,0.291C67.82,37.127,67.705,37.032,67.592,36.936z"/>
		<path fill="#FDD44B" d="M68.809,38.085c-0.141-0.147-0.283-0.292-0.428-0.432C68.525,37.796,68.668,37.938,68.809,38.085z"/>
		<path fill="#FDD44B" d="M63.127,34.22c0.125,0.05,0.246,0.1,0.367,0.153C63.373,34.319,63.252,34.27,63.127,34.22z"/>
		<path fill="#FDD44B" d="M57.928,33.037c0.107,0.006,0.213,0.018,0.32,0.025C58.141,33.055,58.033,33.045,57.928,33.037z"/>
		<path fill="#FDD44B" d="M62.205,33.875c0.109,0.036,0.223,0.081,0.332,0.12C62.428,33.954,62.318,33.911,62.205,33.875z"/>
		<path fill="#FDD44B" d="M69.193,38.499c-2.881-2.364-6.541-3.727-10.455-3.727c-4.031,0-7.909,1.47-10.92,4.139
			c-0.438,0.388-0.855,0.802-1.251,1.236c-0.131-0.137-0.271-0.263-0.405-0.396c0.33,0.323,0.655,0.65,0.962,0.994
			c-0.057-0.062-0.118-0.125-0.176-0.188c0.067,0.055,0.134,0.109,0.198,0.165c2.461-2.759,5.965-4.351,9.758-4.351
			c4.605,0,8.803,2.374,11.18,6.259c0.982-0.563,2.041-1.001,3.145-1.295C70.648,40.307,69.959,39.361,69.193,38.499z"/>
		<path fill="#FDD44B" d="M44.684,38.429c0.394,0.315,0.77,0.65,1.139,0.995C45.454,39.08,45.078,38.745,44.684,38.429z"/>
		<path fill="#FDD44B" d="M61.195,33.567c0.043,0.011,0.082,0.021,0.127,0.032C61.277,33.589,61.238,33.579,61.195,33.567z"/>
		<path fill="#FDD44B" d="M59.982,33.296c0.107,0.019,0.217,0.037,0.322,0.06C60.199,33.333,60.09,33.315,59.982,33.296z"/>
		<path fill="#FDD44B" d="M58.949,33.134c0.117,0.014,0.236,0.031,0.357,0.047C59.186,33.165,59.066,33.148,58.949,33.134z"/>
	</g>
	<g>
		<path fill="#CE593F" d="M36.509,34.521c0.053,0.01,0.105,0.024,0.156,0.036C36.614,34.545,36.562,34.532,36.509,34.521z"/>
		<path fill="#CE593F" d="M47.289,32.021c-0.851-0.439-1.792-0.713-2.783-0.788c-0.487-0.037-0.977-0.027-1.45,0.032
			c-2.32,0.288-4.272,1.635-5.38,3.548c1.424,0.402,2.802,0.96,4.109,1.676c0.589-0.686,1.228-1.337,1.906-1.938
			c1.219-1.079,2.558-1.991,3.977-2.735C47.538,31.882,47.414,31.952,47.289,32.021z"/>
	</g>
	<g>
		<path fill="#CE593F" d="M56.668,46.625c0.264,0,0.523,0.021,0.781,0.048C57.191,46.646,56.932,46.625,56.668,46.625z"/>
		<path fill="#CE593F" d="M60.6,47.892c0.17,0.121,0.336,0.25,0.494,0.387C60.936,48.142,60.77,48.013,60.6,47.892z"/>
		<path fill="#CE593F" d="M61.775,48.957c0.133,0.153,0.258,0.312,0.379,0.477C62.033,49.27,61.908,49.11,61.775,48.957z"/>
		<path fill="#CE593F" d="M61.641,48.809c-0.127-0.137-0.26-0.269-0.398-0.396C61.381,48.54,61.514,48.672,61.641,48.809z"/>
		<path fill="#CE593F" d="M59.857,47.426c0.223,0.118,0.439,0.253,0.648,0.395C60.297,47.679,60.082,47.547,59.857,47.426z"/>
		<path fill="#CE593F" d="M57.684,46.709c0.178,0.028,0.354,0.058,0.527,0.099C58.037,46.768,57.861,46.737,57.684,46.709z"/>
		<path fill="#CE593F" d="M59.186,47.115c0.191,0.076,0.381,0.163,0.564,0.258C59.564,47.278,59.377,47.191,59.186,47.115z"/>
		<path fill="#CE593F" d="M62.742,49.512c-1.074-0.711-2.621-1.126-4.002-1.126c-0.457,0-1.041,0.428-1.479,0.517
			c-2.58,0.52-4.709,2.713-5.354,5.328h12.607c0,0,0-0.742,0-0.76C64.516,52.018,63.521,50.615,62.742,49.512z"/>
		<path fill="#CE593F" d="M58.465,46.874c0.168,0.047,0.332,0.1,0.494,0.158C58.797,46.975,58.633,46.921,58.465,46.874z"/>
	</g>
	<g>
		<path fill="#84BD93" d="M18.483,67.339c-0.102-0.087-0.203-0.171-0.307-0.262C18.28,67.168,18.382,67.252,18.483,67.339z"/>
		<path fill="#84BD93" d="M17.798,66.744c-0.081-0.071-0.16-0.141-0.24-0.215C17.639,66.604,17.719,66.675,17.798,66.744z"/>
		<path fill="#84BD93" d="M19.108,67.849c-0.108-0.083-0.216-0.172-0.326-0.262C18.892,67.677,19.001,67.764,19.108,67.849z"/>
		<path fill="#84BD93" d="M16.038,65.068c0.081,0.082,0.161,0.162,0.242,0.242C16.199,65.231,16.119,65.15,16.038,65.068z"/>
		<path fill="#84BD93" d="M15.579,64.596c-0.071-0.074-0.141-0.148-0.213-0.223C15.438,64.447,15.508,64.521,15.579,64.596z"/>
		<path fill="#84BD93" d="M16.946,65.96c-0.073-0.069-0.147-0.144-0.221-0.215C16.798,65.816,16.871,65.891,16.946,65.96z"/>
		<path fill="#84BD93" d="M20.599,68.932c-0.403-0.267-0.819-0.565-1.243-0.893C19.781,68.369,20.194,68.665,20.599,68.932z"/>
		<path fill="#84BD93" d="M89.273,58.735c0.111-0.159,0.227-0.32,0.334-0.475C89.502,58.415,89.385,58.576,89.273,58.735z"/>
		<path fill="#84BD93" d="M88.697,59.523c0.131-0.174,0.26-0.348,0.379-0.515C88.957,59.178,88.826,59.352,88.697,59.523z"/>
		<path fill="#84BD93" d="M21.136,69.271c-0.131-0.079-0.263-0.16-0.395-0.245C20.875,69.11,21.005,69.191,21.136,69.271z"/>
		<path fill="#84BD93" d="M89.85,57.908c0.078-0.115,0.16-0.232,0.232-0.342C90.01,57.676,89.928,57.793,89.85,57.908z"/>
		<path fill="#84BD93" d="M22.966,70.172c-0.536-0.196-1.11-0.477-1.713-0.832C21.857,69.697,22.43,69.976,22.966,70.172z"/>
		<path fill="#84BD93" d="M13.998,59.461c1.065,2.616,2.87,4.317,5.19,6.868c1.318,1.449,2.6,2.462,3.812,3.479
			c0.621,0.226,1.195,0.116,1.708,0.116h50.589c2.387,0,6.039-2.35,10.014-6.727c1.232-1.356,2.312-1.121,3.219-3.737H13.998z"/>
	</g>
</g>
</svg>
