<?xml version="1.0" encoding="utf-8"?>
<!-- Generator: Adobe Illustrator 16.0.0, SVG Export Plug-In . SVG Version: 6.00 Build 0)  -->
<!DOCTYPE svg PUBLIC "-//W3C//DTD SVG 1.1//EN" "http://www.w3.org/Graphics/SVG/1.1/DTD/svg11.dtd" [
	<!ENTITY ns_flows "http://ns.adobe.com/Flows/1.0/">
	<!ENTITY ns_extend "http://ns.adobe.com/Extensibility/1.0/">
	<!ENTITY ns_ai "http://ns.adobe.com/AdobeIllustrator/10.0/">
	<!ENTITY ns_graphs "http://ns.adobe.com/Graphs/1.0/">
]>
<svg version="1.1" id="Layer_1" xmlns:x="&ns_extend;" xmlns:i="&ns_ai;" xmlns:graph="&ns_graphs;"
	 xmlns="http://www.w3.org/2000/svg" xmlns:xlink="http://www.w3.org/1999/xlink" xmlns:a="http://ns.adobe.com/AdobeSVGViewerExtensions/3.0/"
	 x="0px" y="0px" width="100px" height="100px" viewBox="0 0 100 100" enable-background="new 0 0 100 100" xml:space="preserve">
<g>
	<g>
		<path fill="#FDD44B" d="M34.458,42.07c0.086-0.191,0.165-0.387,0.262-0.576C34.623,41.682,34.544,41.877,34.458,42.07z"/>
		<path fill="#FDD44B" d="M35.051,40.93c0.097-0.16,0.187-0.324,0.292-0.481C35.238,40.605,35.147,40.77,35.051,40.93z"/>
		<path fill="#FDD44B" d="M33.997,43.319c0.072-0.241,0.138-0.484,0.226-0.721C34.135,42.835,34.069,43.079,33.997,43.319z"/>
		<path fill="#FDD44B" d="M33.639,44.965c0.05-0.408,0.126-0.811,0.223-1.204C33.765,44.154,33.689,44.557,33.639,44.965z"/>
		<path fill="#FDD44B" d="M35.019,45.658c0,0.013,0,0.024,0,0.033C35.019,45.68,35.019,45.671,35.019,45.658z"/>
		<path fill="#FDD44B" d="M38.92,37.009c-0.104,0.067-0.196,0.145-0.3,0.213c0.219-0.148,0.429-0.302,0.661-0.441
			c3.066-1.843,6.906-2.594,10.81-2.113c3.905,0.482,7.445,2.146,9.971,4.678c2.658,2.664,3.896,5.973,3.484,9.31
			c-0.231,1.88-0.958,3.267-2.156,4.129c-1.009,0.727-2.2,0.987-3.536,0.989c-1.438,0-3.043-0.304-4.77-0.65
			c-0.014,0.928,0.192,2.285,0.953,4.206c0.531,0.98,2.867,5.687,0.641,9.013c-1.2,1.796-3.366,2.536-6.443,2.699
			c-0.836,0.045-2.443-0.165-2.455-0.168c-4.307-0.548-6.948-2.094-7.844-4.598c-1.352-3.77,2.06-7.766,2.812-8.587
			c1.207-1.68,1.735-2.946,1.949-3.849c-3.396-0.158-6.31-0.379-7.973-2.347c-0.474-0.559-0.801-1.216-0.982-1.963l0,0
			l-8.316,16.902c1.094-0.556,2.297-0.85,3.551-0.85c2.446,0,4.711,1.104,6.214,3.032c1.293,1.66,1.866,3.723,1.607,5.811
			c-0.257,2.089-1.312,3.953-2.971,5.247c-1.399,1.09-3.073,1.668-4.842,1.668c-2.448,0-4.712-1.105-6.215-3.032
			c-0.808-1.035-1.31-2.212-1.531-3.419c0.001,0.013,0.001,0.029,0.004,0.044l-5.982,12.159l65.241-14.02
			c0.191-7.974-4.668-19.424-12.708-29.729c-6.773-8.678-14.929-15.388-21.989-18.321L38.92,37.009z M72.035,53.387
			c0.966,0.079,1.74,0.831,1.853,1.793c0.841,7.268-2.354,13.933-8.546,17.833c-0.333,0.21-0.709,0.312-1.084,0.312
			c-0.542,0-1.078-0.218-1.474-0.633l-4.918-5.177c-0.419-0.441-0.618-1.048-0.541-1.654c0.075-0.604,0.418-1.142,0.933-1.466
			c3.291-2.07,4.919-5.477,4.472-9.338c-0.068-0.604,0.137-1.211,0.562-1.647c0.424-0.438,1.021-0.661,1.629-0.614L72.035,53.387z"
			/>
		<path fill="#FDD44B" d="M21.185,71.786c0,0.04,0,0.079,0,0.12C21.185,71.865,21.185,71.826,21.185,71.786z"/>
		<path fill="#FDD44B" d="M36.962,38.545c-0.123,0.118-0.235,0.241-0.352,0.363C36.727,38.788,36.841,38.663,36.962,38.545z"/>
		<path fill="#FDD44B" d="M35.769,39.878c0.108-0.139,0.209-0.281,0.324-0.416C35.979,39.597,35.877,39.739,35.769,39.878z"/>
		<path fill="#FDD44B" d="M37.953,37.699c-0.136,0.105-0.262,0.213-0.39,0.323C37.691,37.912,37.817,37.805,37.953,37.699z"/>
		<path fill="#FDD44B" d="M24.792,64.792c-0.013,0.008-0.024,0.014-0.037,0.024C24.768,64.806,24.78,64.8,24.792,64.792z"/>
		<path fill="#FDD44B" d="M45.118,22.739c0.141,0.054,0.28,0.109,0.42,0.165C45.397,22.848,45.258,22.792,45.118,22.739z"/>
		<path fill="#FDD44B" d="M43.619,22.216c0.095,0.028,0.187,0.057,0.282,0.088C43.805,22.272,43.713,22.244,43.619,22.216z"/>
		<path fill="#FDD44B" d="M21.132,70.927c0.005-0.07,0.01-0.14,0.016-0.208C21.144,70.787,21.137,70.856,21.132,70.927z"/>
		<path fill="#FDD44B" d="M23.386,65.924c-0.064,0.063-0.126,0.132-0.189,0.199C23.26,66.056,23.322,65.987,23.386,65.924z"/>
		<path fill="#FDD44B" d="M21.967,67.894c0.031-0.061,0.056-0.12,0.086-0.178C22.022,67.773,21.998,67.833,21.967,67.894z"/>
		<path fill="#FDD44B" d="M22.563,66.896c0.038-0.056,0.085-0.108,0.126-0.164C22.648,66.787,22.604,66.841,22.563,66.896z"/>
		<path fill="#FDD44B" d="M21.563,68.836c0.025-0.073,0.053-0.146,0.083-0.219C21.616,68.69,21.588,68.761,21.563,68.836z"/>
	</g>
	<g>
		<path fill="#FDD44B" d="M57.498,16.563c0.443,0.276,0.895,0.569,1.352,0.877C58.393,17.131,57.941,16.838,57.498,16.563z"/>
		<path fill="#FDD44B" d="M54.896,15.082c0.802,0.411,1.638,0.884,2.504,1.422C56.536,15.966,55.7,15.493,54.896,15.082z"/>
		<path fill="#FDD44B" d="M53.583,14.45c0.374,0.168,0.759,0.351,1.15,0.549C54.342,14.801,53.957,14.615,53.583,14.45z"/>
		<path fill="#FDD44B" d="M69.657,26.699c-1.622-1.675-3.226-3.2-4.787-4.572C66.435,23.499,68.035,25.024,69.657,26.699z"/>
		<path fill="#FDD44B" d="M52.509,14.004c0.341,0.131,0.691,0.275,1.052,0.436C53.2,14.279,52.852,14.136,52.509,14.004z"/>
		<path fill="#FDD44B" d="M61.814,19.596c0.99,0.771,2.002,1.606,3.032,2.513C63.816,21.202,62.805,20.367,61.814,19.596z"/>
		<path fill="#FDD44B" d="M48.429,13.096c0.25,0,0.513,0.019,0.782,0.045C48.943,13.114,48.679,13.096,48.429,13.096z"/>
		<path fill="#FDD44B" d="M58.878,17.46c0.936,0.633,1.9,1.334,2.888,2.102C60.778,18.793,59.813,18.093,58.878,17.46z"/>
		<path fill="#FDD44B" d="M44.144,18.131c0.479,0.135,0.965,0.291,1.454,0.459C45.109,18.422,44.624,18.266,44.144,18.131z"/>
		<path fill="#FDD44B" d="M47.096,19.157c-0.343-0.138-0.682-0.27-1.021-0.393C46.416,18.888,46.755,19.017,47.096,19.157z"/>
		<path fill="#FDD44B" d="M89.411,57.241c-2.291-6.878-6.849-14.889-12.835-22.562c-2.307-2.958-4.633-5.616-6.919-7.98
			c-7.08-6.38-13.418-9.672-17.159-9.672c-0.813,0-1.496,0.154-2.037,0.461l-1.274,2.59c-0.009-0.005-0.021-0.011-0.031-0.014
			c7.275,3.504,15.135,10.175,21.845,18.775c8.399,10.765,13.41,22.47,13.564,31.359l5.161-1.108
			C91.42,67.323,91.314,62.953,89.411,57.241z"/>
		<path fill="#FDD44B" d="M51.352,13.604c0.319,0.096,0.646,0.21,0.985,0.336C52,13.812,51.671,13.699,51.352,13.604z"/>
		<path fill="#FDD44B" d="M47.636,19.378c0.367,0.158,0.738,0.323,1.11,0.497C48.375,19.701,48.005,19.536,47.636,19.378z"/>
		<path fill="#FDD44B" d="M50.354,13.336c0.273,0.063,0.555,0.136,0.843,0.223C50.909,13.472,50.625,13.396,50.354,13.336z"/>
		<path fill="#FDD44B" d="M49.389,13.165c0.27,0.033,0.549,0.079,0.841,0.141C49.938,13.244,49.659,13.198,49.389,13.165z"/>
	</g>
	<g>
		<path fill="#CE593F" d="M28.977,67.65c0.178,0,0.354,0.014,0.527,0.039C29.332,67.665,29.155,67.65,28.977,67.65z"/>
		<path fill="#CE593F" d="M29.551,67.698c0.166,0.027,0.333,0.062,0.492,0.108C29.884,67.761,29.719,67.724,29.551,67.698z"/>
		<path fill="#CE593F" d="M29.836,75.163c-0.092,0.021-0.182,0.047-0.272,0.061C29.656,75.21,29.744,75.185,29.836,75.163z"/>
		<path fill="#CE593F" d="M31.985,69.118c-0.501-0.643-1.181-1.09-1.938-1.312c-0.456,0.133-0.884,0.351-1.269,0.649
			c-1.656,1.293-1.952,3.691-0.659,5.349c0.498,0.637,1.172,1.084,1.928,1.305c0.458-0.134,0.892-0.344,1.279-0.646
			c0.801-0.626,1.312-1.528,1.438-2.535C32.887,70.92,32.611,69.918,31.985,69.118z"/>
	</g>
	<g>
		<path fill="#EF8829" d="M38.032,47.033c-0.023-0.012-0.049-0.028-0.068-0.043C37.983,47.007,38.01,47.021,38.032,47.033z"/>
		<path fill="#EF8829" d="M57.751,42.843c-1.698-1.17-3.779-1.941-6.037-2.223c-3.006-0.369-5.924,0.184-8.215,1.563
			c-2.133,1.28-3.446,3.127-3.702,5.195c-0.004,0.048-0.011,0.099-0.017,0.156c-0.114-0.016-0.224-0.033-0.331-0.052
			c1.105,0.187,2.575,0.256,3.941,0.315c0.482,0.024,1.496,0.075,1.501,0.075c0.892,0.054,1.676,0.69,1.869,1.606
			c0.53,2.499-0.409,5.428-2.79,8.702c-0.054,0.072-0.11,0.141-0.174,0.207c-1.065,1.127-2.45,3.348-2.027,4.517
			c0.326,0.901,2.046,1.629,4.602,1.944c2.554,0.315,4.395,0.028,4.928-0.768c0.694-1.031-0.107-3.522-0.872-4.881
			c-0.041-0.075-0.082-0.159-0.113-0.239c-1.513-3.754-1.713-6.822-0.59-9.116c0.408-0.838,1.316-1.267,2.192-1.108
			c0.007,0,1.012,0.201,1.485,0.298c2.279,0.462,4.865,0.987,5.617,0.447c0.315-0.226,0.444-0.928,0.493-1.325
			C59.735,46.328,59.11,44.467,57.751,42.843z"/>
		<path fill="#EF8829" d="M38.248,47.153c-0.038-0.018-0.079-0.036-0.112-0.057C38.168,47.117,38.209,47.136,38.248,47.153z"/>
		<path fill="#EF8829" d="M39.426,47.478c-0.098-0.018-0.193-0.034-0.287-0.054C39.231,47.443,39.326,47.463,39.426,47.478z"/>
		<path fill="#EF8829" d="M39.089,47.415c-0.085-0.019-0.164-0.038-0.242-0.056C38.925,47.377,39.004,47.396,39.089,47.415z"/>
		<path fill="#EF8829" d="M38.497,47.253c-0.054-0.019-0.106-0.036-0.155-0.056C38.388,47.217,38.443,47.234,38.497,47.253z"/>
		<path fill="#EF8829" d="M38.776,47.34c-0.067-0.021-0.134-0.038-0.195-0.058C38.642,47.302,38.708,47.318,38.776,47.34z"/>
	</g>
	<path fill="#84BD93" d="M69.891,58.834l-1.865-0.154c-0.186,3.524-1.689,6.733-4.265,9.133l-1.378-1.45l2.146,2.258
		c3.568-2.792,5.484-6.794,5.424-11.325C69.959,57.816,69.934,58.326,69.891,58.834z"/>
	<path fill="#3F2D20" d="M79.783,32.179C68.98,18.332,56.38,9.028,48.431,9.028c-1.922,0-3.56,0.519-4.874,1.543
		c-0.243,0.188-0.438,0.431-0.575,0.705L5.209,88.04c-0.345,0.699-0.258,1.534,0.221,2.148c0.389,0.501,0.985,0.783,1.604,0.783
		c0.142,0,0.284-0.015,0.427-0.045l83.644-17.972c0.3-0.066,0.582-0.195,0.825-0.384C99.751,66.469,91.51,47.205,79.783,32.179z
		 M42.315,21.848c7.739,1.873,17.558,9.343,25.48,19.496c8.038,10.306,12.897,21.755,12.708,29.73L10.712,86.07L42.315,21.848z
		 M89.728,69.091l-5.162,1.108c-0.154-8.893-5.164-20.595-13.562-31.359c-8.288-10.623-18.328-18.306-26.858-20.709l2.251-4.575
		c0.539-0.307,1.223-0.46,2.037-0.46c5.617,0,17.088,7.413,28.145,21.584c5.987,7.673,10.545,15.687,12.836,22.562
		C91.314,62.954,91.42,67.323,89.728,69.091z"/>
	<path fill="#3F2D20" d="M28.977,63.582c-1.771,0-3.444,0.575-4.844,1.666c-3.425,2.674-4.037,7.632-1.364,11.058
		c1.503,1.928,3.77,3.032,6.216,3.032c1.769,0,3.443-0.578,4.84-1.668c1.66-1.294,2.716-3.156,2.973-5.246
		c0.258-2.087-0.314-4.152-1.607-5.812C33.689,64.687,31.422,63.582,28.977,63.582z M32.763,71.929
		c-0.125,1.009-0.637,1.909-1.438,2.535c-0.676,0.526-1.487,0.806-2.339,0.806c-1.186,0-2.282-0.534-3.01-1.465
		c-1.293-1.658-0.996-4.056,0.659-5.349c0.676-0.528,1.487-0.806,2.341-0.806c1.185,0,2.279,0.534,3.008,1.465
		C32.611,69.918,32.887,70.917,32.763,71.929z"/>
	<path fill="#3F2D20" d="M53.083,53.122c1.727,0.349,3.333,0.65,4.771,0.65c1.336-0.002,2.527-0.263,3.536-0.989
		c1.198-0.862,1.923-2.249,2.156-4.129c0.412-3.337-0.826-6.644-3.484-9.31c-2.526-2.534-6.066-4.195-9.971-4.678
		c-3.903-0.48-7.743,0.269-10.81,2.113c-3.227,1.939-5.231,4.846-5.643,8.185c-0.23,1.877,0.133,3.398,1.086,4.527
		c1.664,1.968,4.578,2.188,7.973,2.345c-0.212,0.905-0.74,2.174-1.949,3.851c-0.753,0.821-4.164,4.818-2.814,8.587
		c0.897,2.502,3.539,4.048,7.846,4.598c0.012,0,1.619,0.213,2.455,0.168c3.076-0.163,5.243-0.903,6.443-2.699
		c2.227-3.326-0.109-8.034-0.641-9.013C53.275,55.41,53.071,54.05,53.083,53.122z M51.297,64.083
		c-0.536,0.796-2.375,1.081-4.929,0.768c-2.558-0.315-4.275-1.04-4.602-1.944c-0.423-1.169,0.962-3.39,2.028-4.517
		c0.063-0.066,0.12-0.135,0.172-0.207c2.382-3.274,3.321-6.201,2.791-8.702c-0.194-0.916-0.978-1.556-1.869-1.606
		c-0.004,0-1.019-0.051-1.501-0.075c-2.323-0.102-4.959-0.222-5.558-0.929c-0.252-0.296-0.205-1.008-0.157-1.404
		c0.257-2.071,1.569-3.916,3.703-5.196c2.29-1.378,5.208-1.931,8.215-1.56c3.006,0.37,5.7,1.618,7.588,3.511
		c1.756,1.761,2.582,3.871,2.326,5.941c-0.048,0.396-0.177,1.096-0.492,1.324c-0.752,0.54-3.335,0.015-5.617-0.447
		c-0.474-0.096-1.477-0.294-1.486-0.297c-0.873-0.159-1.783,0.27-2.192,1.107c-1.122,2.297-0.924,5.362,0.59,9.116
		c0.033,0.08,0.073,0.164,0.114,0.24C51.188,60.562,51.992,63.052,51.297,64.083z"/>
	<path fill="#3F2D20" d="M72.035,53.387l-7.115-0.592c-0.608-0.047-1.205,0.177-1.629,0.614c-0.425,0.437-0.63,1.043-0.562,1.647
		c0.447,3.863-1.183,7.268-4.472,9.338c-0.515,0.324-0.86,0.862-0.933,1.47c-0.077,0.603,0.122,1.209,0.541,1.65l4.918,5.177
		c0.396,0.417,0.932,0.633,1.474,0.633c0.375,0,0.749-0.102,1.084-0.312c6.19-3.9,9.385-10.565,8.546-17.833
		C73.775,54.218,73.001,53.466,72.035,53.387z M64.528,68.62l-2.146-2.258c2.702-2.419,4.275-5.704,4.467-9.324l3.104,0.257
		C70.014,61.826,68.095,65.828,64.528,68.62z"/>
</g>
</svg>
