<?xml version="1.0" encoding="utf-8"?>
<!-- Generator: Adobe Illustrator 16.0.0, SVG Export Plug-In . SVG Version: 6.00 Build 0)  -->
<!DOCTYPE svg PUBLIC "-//W3C//DTD SVG 1.1//EN" "http://www.w3.org/Graphics/SVG/1.1/DTD/svg11.dtd" [
	<!ENTITY ns_flows "http://ns.adobe.com/Flows/1.0/">
	<!ENTITY ns_extend "http://ns.adobe.com/Extensibility/1.0/">
	<!ENTITY ns_ai "http://ns.adobe.com/AdobeIllustrator/10.0/">
	<!ENTITY ns_graphs "http://ns.adobe.com/Graphs/1.0/">
]>
<svg version="1.1" id="Layer_1" xmlns:x="&ns_extend;" xmlns:i="&ns_ai;" xmlns:graph="&ns_graphs;"
	 xmlns="http://www.w3.org/2000/svg" xmlns:xlink="http://www.w3.org/1999/xlink" xmlns:a="http://ns.adobe.com/AdobeSVGViewerExtensions/3.0/"
	 x="0px" y="0px" width="100px" height="100px" viewBox="0 0 100 100" enable-background="new 0 0 100 100" xml:space="preserve">
<g>
	<g>
		<path fill="#FDD44B" d="M90.881,44.734c-1.163-1.826-4.41-4.062-10.863-6.018c-1.061-0.323-2.175-0.625-3.33-0.908l-6.687,6.759
			c-0.898,0.897-2.077,1.345-3.253,1.345c-1.173,0-2.347-0.445-3.239-1.34c-1.362-1.364-1.686-3.377-0.971-5.05
			c-0.544-1.276-0.488-2.75,0.179-3.982l0,0c-1.152-0.108-2.317-0.203-3.501-0.282l-9.253,9.311
			c-0.896,0.896-2.073,1.344-3.246,1.344c-1.176,0-2.352-0.445-3.245-1.34c-1.362-1.364-1.682-3.377-0.969-5.05
			c-0.606-1.422-0.465-3.089,0.431-4.394c-0.003,0.002-0.006,0.004-0.007,0.006c-1.296,0.065-2.575,0.147-3.839,0.248l-9.162,9.188
			c-0.895,0.896-2.073,1.344-3.247,1.344s-2.35-0.448-3.242-1.343c-1.364-1.364-1.507-3.418-0.792-5.091
			c-0.192-0.456-0.437-0.977-0.437-1.461c0,0.002-0.164,0.092-0.164,0.093c-0.625,0.192-1.404,0.393-2.093,0.603
			c-6.451,1.956-9.685,4.191-10.842,6.018c-0.079-0.146,0.938,2.76,4.183,2.76l73.475-0.39c1.97,0,3.655-1.165,4.319-2.906
			C91.021,44.355,90.955,44.587,90.881,44.734z"/>
		<path fill="#FDD44B" d="M91.355,43.162c0.021-0.172,0.031-0.347,0.031-0.525C91.387,42.817,91.376,42.99,91.355,43.162z"/>
		<path fill="#FDD44B" d="M91.107,44.211c0.051-0.136,0.09-0.272,0.125-0.412C91.197,43.937,91.158,44.076,91.107,44.211z"/>
		<path fill="#FDD44B" d="M91.262,43.686c0.029-0.129,0.056-0.261,0.074-0.395C91.317,43.425,91.296,43.558,91.262,43.686z"/>
	</g>
	<path fill="#FDD44B" d="M66.062,38.407c0.376,0.38,0.997,0.379,1.376,0l5.066-5.116c-0.755-0.143-1.521-0.28-2.299-0.405
		l-4.144,4.143C65.679,37.407,65.679,38.027,66.062,38.407z"/>
	<path fill="#FDD44B" d="M25.989,38.407c0.381,0.38,0.998,0.379,1.378,0l6.03-6.048c-1.087,0.14-2.15,0.292-3.198,0.458l-4.21,4.21
		C25.609,37.407,25.609,38.027,25.989,38.407z"/>
	<path fill="#FDD44B" d="M46.025,38.407c0.38,0.38,0.998,0.379,1.38,0l6.95-6.996c-0.88-0.025-1.768-0.042-2.661-0.053l-5.668,5.67
		C45.644,37.407,45.644,38.027,46.025,38.407z"/>
	<path fill="#3F2D20" d="M91.403,60.66c0.256-0.584,0.399-1.227,0.399-1.906c0-2.346-1.703-4.301-3.936-4.703
		c0.152-0.514,0.235-1.059,0.235-1.629c0-0.568-0.083-1.113-0.237-1.625c4.023-0.54,7.135-3.99,7.135-8.159
		c0-4.426-4.815-8.227-13.932-10.99c-8.324-2.525-19.357-3.914-31.065-3.914c-11.712,0-22.742,1.389-31.067,3.914
		C9.821,34.41,5,38.212,5,42.638c0,4.168,3.113,7.619,7.138,8.159c-0.15,0.511-0.238,1.056-0.238,1.625
		c0,0.57,0.085,1.115,0.238,1.629c-2.235,0.402-3.937,2.357-3.937,4.703c0,0.68,0.146,1.322,0.404,1.906
		c-1.938,1.041-3.262,3.088-3.262,5.438c0,3.4,2.768,6.168,6.172,6.168h76.976c3.402,0,6.17-2.768,6.17-6.168
		C94.661,63.75,93.339,61.703,91.403,60.66z M88.489,68.652H11.514c-1.411,0-2.557-1.146-2.557-2.555
		c0-1.41,1.146-2.557,2.557-2.557h76.976c1.41,0,2.557,1.146,2.557,2.557C91.046,67.506,89.899,68.652,88.489,68.652z
		 M33.397,32.358l-6.03,6.048c-0.378,0.379-0.995,0.38-1.378,0c-0.38-0.38-0.38-0.998,0-1.378l4.21-4.21
		C31.247,32.65,32.311,32.499,33.397,32.358z M23.842,34.066l-0.407,0.405c-1.787,1.789-1.787,4.701,0,6.487
		c0.894,0.895,2.069,1.341,3.242,1.341c1.175,0,2.352-0.448,3.248-1.343l9.161-9.187c2.429-0.194,4.926-0.322,7.47-0.384
		l-3.085,3.085c-1.788,1.789-1.788,4.701,0,6.487c0.894,0.893,2.069,1.341,3.243,1.341c1.175,0,2.353-0.448,3.248-1.345l9.254-9.309
		c2.229,0.146,4.407,0.349,6.514,0.601l-2.224,2.224c-1.789,1.791-1.789,4.701,0,6.487c0.894,0.894,2.066,1.34,3.239,1.34
		c1.179,0,2.357-0.448,3.253-1.346l6.689-6.759c1.155,0.286,2.267,0.587,3.33,0.909c8.383,2.542,11.369,5.56,11.369,7.535
		c0,2.549-2.074,4.624-4.626,4.624H13.235c-2.547,0-4.622-2.075-4.622-4.624c0-1.976,2.986-4.993,11.367-7.535
		C21.209,34.733,22.499,34.388,23.842,34.066z M54.355,31.411l-6.952,6.996c-0.38,0.379-0.998,0.38-1.38,0
		c-0.38-0.38-0.38-0.998,0-1.378l5.668-5.671C52.588,31.368,53.476,31.385,54.355,31.411z M72.505,33.291l-5.066,5.116
		c-0.379,0.379-1,0.38-1.376,0c-0.384-0.38-0.384-0.998,0-1.378l4.144-4.143C70.984,33.01,71.75,33.146,72.505,33.291z
		 M16.456,50.872h18.697c0.447,0,0.943,0.662,0.943,1.548c0,0.889-0.496,1.551-0.943,1.551H16.456c-0.445,0-0.941-0.662-0.941-1.551
		C15.514,51.535,16.01,50.872,16.456,50.872z M60.293,52.42c0,0.889-0.496,1.551-0.941,1.551H40.652
		c-0.443,0-0.941-0.662-0.941-1.551c0-0.885,0.498-1.548,0.941-1.548h18.699C59.797,50.872,60.293,51.535,60.293,52.42z
		 M83.548,53.971H64.85c-0.445,0-0.943-0.662-0.943-1.551c0-0.885,0.498-1.548,0.943-1.548h18.698c0.443,0,0.944,0.662,0.944,1.548
		C84.492,53.309,83.991,53.971,83.548,53.971z M12.985,57.582h74.031c0.646,0,1.174,0.527,1.174,1.172
		c0,0.646-0.528,1.176-1.174,1.176H12.985c-0.647,0-1.17-0.529-1.17-1.176C11.813,58.109,12.338,57.582,12.985,57.582z"/>
	<path fill="#FDD44B" d="M88.489,65.4H15.021c-1.412,0-2.557,0.639-2.557,2.047c0,1.41,1.145,2.049,2.557,2.049h73.468
		c1.41,0,2.557-0.639,2.557-2.049C91.046,66.039,89.899,65.4,88.489,65.4z"/>
	<path fill="#84BD93" d="M87.017,58.574H16.496c-0.646,0-1.172,0.037-1.172,0.684c0,0.645,0.526,0.682,1.172,0.682h70.521
		c0.646,0,1.174-0.037,1.174-0.682C88.19,58.611,87.662,58.574,87.017,58.574z"/>
	<path fill="#CE593F" d="M35.153,51.748H20.005c-0.447,0-0.941,1.164-0.941,2.049s0.494,2.047,0.941,2.047h15.148
		c0.447,0,0.943-1.162,0.943-2.047S35.601,51.748,35.153,51.748z"/>
	<g>
		<path fill="#EF8829" d="M39.794,53.037c0.161,0.561,0.524,0.934,0.857,0.934l0,0C40.318,53.971,39.955,53.598,39.794,53.037z"/>
		<path fill="#EF8829" d="M40.651,50.872L40.651,50.872c-0.333,0-0.696,0.373-0.857,0.933
			C39.955,51.244,40.318,50.872,40.651,50.872z"/>
		<path fill="#EF8829" d="M59.352,51.748H44.198c-0.443,0-0.939,1.164-0.939,2.049s0.496,2.047,0.939,2.047h15.153
			c0.44,0,0.941-1.162,0.941-2.047S59.794,51.748,59.352,51.748z"/>
	</g>
	<path fill="#CE593F" d="M83.548,51.748H68.398c-0.445,0-0.944,1.164-0.944,2.049s0.499,2.047,0.944,2.047h15.149
		c0.443,0,0.944-1.162,0.944-2.047S83.991,51.748,83.548,51.748z"/>
</g>
</svg>
